<mxfile host="app.diagrams.net" modified="2024-04-07T03:43:35.709Z" agent="Mozilla/5.0 (Windows NT 10.0; Win64; x64) AppleWebKit/537.36 (KHTML, like Gecko) Chrome/122.0.0.0 Safari/537.36 OPR/108.0.0.0" version="24.2.2" etag="aOPYPSg_dHigbUO-RPiG" type="github">
  <diagram name="Page-1" id="oh1s1A6DiQ1iEwGyWh_4">
    <mxGraphModel>
      <root>
        <mxCell id="0" />
        <mxCell id="1" parent="0" />
      </root>
    </mxGraphModel>
  </diagram>
</mxfile>
